<svg width="81" height="82" viewBox="0 0 81 82" fill="none" xmlns="http://www.w3.org/2000/svg">
<g clip-path="url(#clip0)">
<path d="M72 11.75H31.5V41H81V20.75C81 18.3631 80.0518 16.0739 78.364 14.386C76.6761 12.6982 74.3869 11.75 72 11.75Z" fill="#FCD116"/>
<path d="M31.5 70.25H72C74.3869 70.25 76.6761 69.3018 78.364 67.614C80.0518 65.9261 81 63.6369 81 61.25V41H31.5V70.25Z" fill="#E8112D"/>
<path d="M31.5 11.75H9C6.61305 11.75 4.32387 12.6982 2.63604 14.386C0.948212 16.0739 0 18.3631 0 20.75L0 61.25C0 63.6369 0.948212 65.9261 2.63604 67.614C4.32387 69.3018 6.61305 70.25 9 70.25H31.5V11.75Z" fill="#008751"/>
</g>
<defs>
<clipPath id="clip0">
<rect width="81" height="81" fill="white" transform="translate(0 0.5)"/>
</clipPath>
</defs>
</svg>
