<svg width="81" height="82" viewBox="0 0 81 82" fill="none" xmlns="http://www.w3.org/2000/svg">
<g clip-path="url(#clip0)">
<path d="M72 11.75H9C6.61305 11.75 4.32387 12.6982 2.63604 14.386C0.948212 16.0739 0 18.3631 0 20.75L0 32H81V20.75C81 18.3631 80.0518 16.0739 78.364 14.386C76.6761 12.6982 74.3869 11.75 72 11.75Z" fill="#CC212D"/>
<path d="M34.7018 50H46.368L40.536 45.761L34.7018 50ZM42.7725 38.8827H50.0063L44.154 43.133L46.3838 50H81V32H40.536L42.7725 38.8827ZM36.918 43.133L31.0658 38.8827H38.2995L40.536 32H0V50H34.686L36.918 43.133Z" fill="#FBD116"/>
<path d="M46.3883 50.0135L46.368 50H34.6995L34.6792 50.0135L34.686 50H0V61.25C0 63.6369 0.948212 65.9261 2.63604 67.614C4.32387 69.3018 6.61305 70.25 9 70.25H72C74.3869 70.25 76.6761 69.3018 78.364 67.614C80.0518 65.9261 81 63.6369 81 61.25V50H46.3838L46.3883 50.0135Z" fill="#288541"/>
<path d="M31.0658 38.8828L36.918 43.133L34.686 50L34.6815 50.0135L34.7018 50L40.536 45.761L46.368 50L46.3883 50.0135L46.3838 50L44.154 43.133L50.0063 38.8828H42.7725L40.536 32L38.2995 38.8828H31.0658Z" fill="black"/>
</g>
<defs>
<clipPath id="clip0">
<rect width="81" height="81" fill="white" transform="translate(0 0.5)"/>
</clipPath>
</defs>
</svg>
