<svg width="81" height="82" viewBox="0 0 81 82" fill="none" xmlns="http://www.w3.org/2000/svg">
<g clip-path="url(#clip0)">
<path d="M72 11.75H9C6.61305 11.75 4.32387 12.6982 2.63604 14.386C0.948212 16.0739 0 18.3631 0 20.75L0 61.25C0 63.6369 0.948212 65.9261 2.63604 67.614C4.32387 69.3018 6.61305 70.25 9 70.25H72C74.3869 70.25 76.6761 69.3018 78.364 67.614C80.0518 65.9261 81 63.6369 81 61.25V20.75C81 18.3631 80.0518 16.0739 78.364 14.386C76.6761 12.6982 74.3869 11.75 72 11.75Z" fill="#CE2540"/>
<path d="M0 20.75V61.25H81V20.75H0Z" fill="#0F6433"/>
<path d="M33.606 28.994L37.8675 32.0878L36.243 37.085L36.2385 37.0963L36.2542 37.085L40.5 34.0003L44.7457 37.085L44.7592 37.0963L44.757 37.085L43.1325 32.0878L47.394 28.994H42.1267L40.5 23.9833L38.8732 28.994H33.606Z" fill="#FFC514"/>
<path d="M58.725 31.1923C58.6823 41.2228 50.5395 49.343 40.5 49.343C30.4605 49.343 22.3178 41.2228 22.275 31.1923C21.8411 32.786 21.6187 34.4298 21.6135 36.0815C21.6135 41.0911 23.6036 45.8955 27.1459 49.4379C30.6882 52.9802 35.4926 54.9703 40.5023 54.9703C45.5119 54.9703 50.3163 52.9802 53.8586 49.4379C57.4009 45.8955 59.391 41.0911 59.391 36.0815C59.3832 34.4297 59.1593 32.786 58.725 31.1923Z" fill="#FFC514"/>
</g>
<defs>
<clipPath id="clip0">
<rect width="81" height="81" fill="white" transform="translate(0 0.5)"/>
</clipPath>
</defs>
</svg>
