<svg width="81" height="82" viewBox="0 0 81 82" fill="none" xmlns="http://www.w3.org/2000/svg">
<g clip-path="url(#clip0)">
<path d="M0 29.75H81V52.25H0V29.75Z" fill="#EEEEEE"/>
<path d="M72 11.75H9C6.61305 11.75 4.32387 12.6982 2.63604 14.386C0.948212 16.0739 0 18.3631 0 20.75L0 29.75H81V20.75C81 18.3631 80.0518 16.0739 78.364 14.386C76.6761 12.6982 74.3869 11.75 72 11.75Z" fill="#E05206"/>
<path d="M40.5 50C45.4706 50 49.5 45.9706 49.5 41C49.5 36.0294 45.4706 32 40.5 32C35.5294 32 31.5 36.0294 31.5 41C31.5 45.9706 35.5294 50 40.5 50Z" fill="#E05206"/>
<path d="M72 70.25H9C6.61305 70.25 4.32387 69.3018 2.63604 67.614C0.948212 65.9261 0 63.6369 0 61.25V52.25H81V61.25C81 63.6369 80.0518 65.9261 78.364 67.614C76.6761 69.3018 74.3869 70.25 72 70.25Z" fill="#0DB02B"/>
</g>
<defs>
<clipPath id="clip0">
<rect width="81" height="81" fill="white" transform="translate(0 0.5)"/>
</clipPath>
</defs>
</svg>
