<svg width="81" height="82" viewBox="0 0 81 82" fill="none" xmlns="http://www.w3.org/2000/svg">
<g clip-path="url(#clip0)">
<path d="M72 11.75H9C6.61305 11.75 4.32387 12.6982 2.63604 14.386C0.948212 16.0739 0 18.3631 0 20.75L0 26.375H81V20.75C81 18.3631 80.0518 16.0739 78.364 14.386C76.6761 12.6982 74.3869 11.75 72 11.75Z" fill="#003082"/>
<path d="M0 26.375H81V41H0V26.375Z" fill="#EEEEEE"/>
<path d="M0 41H81V55.625H0V41Z" fill="#289728"/>
<path d="M0 55.625V61.25C0 63.6369 0.948212 65.9261 2.63604 67.614C4.32387 69.3018 6.61305 70.25 9 70.25H72C74.3869 70.25 76.6761 69.3018 78.364 67.614C80.0518 65.9261 81 63.6369 81 61.25V55.625H0Z" fill="#FFCE00"/>
<path d="M33.75 11.75H47.25V70.25H33.75V11.75Z" fill="#D21034"/>
<path d="M15.4755 17.627L13.9455 12.9155L12.4132 17.627H7.461L11.4682 20.5385L9.93825 25.25L13.9455 22.3385L17.9527 25.25L16.4205 20.5385L20.43 17.627H15.4755Z" fill="#FFCE00"/>
</g>
<defs>
<clipPath id="clip0">
<rect width="81" height="81" fill="white" transform="translate(0 0.5)"/>
</clipPath>
</defs>
</svg>
