<svg width="81" height="82" viewBox="0 0 81 82" fill="none" xmlns="http://www.w3.org/2000/svg">
<g clip-path="url(#clip0)">
<path d="M9 11.75C6.61305 11.75 4.32387 12.6982 2.63604 14.386C0.948212 16.0739 0 18.3631 0 20.75L0 61.25C0 63.6369 0.948212 65.9261 2.63604 67.614C4.32387 69.3018 6.61305 70.25 9 70.25H27V11.75H9Z" fill="#00853F"/>
<path d="M27 11.75H54V70.25H27V11.75Z" fill="#FDEF42"/>
<path d="M72 11.75H54V70.25H72C74.3869 70.25 76.6761 69.3018 78.364 67.614C80.0518 65.9261 81 63.6369 81 61.25V20.75C81 18.3631 80.0518 16.0739 78.364 14.386C76.6761 12.6982 74.3869 11.75 72 11.75Z" fill="#E31B23"/>
<path d="M42.4553 38.0165L40.5 32L38.5448 38.0165H32.22L37.3365 41.7335L35.3835 47.75L40.5 44.033L45.6165 47.75L43.6635 41.7335L48.78 38.0165H42.4553Z" fill="#00853F"/>
</g>
<defs>
<clipPath id="clip0">
<rect width="81" height="81" fill="white" transform="translate(0 0.5)"/>
</clipPath>
</defs>
</svg>
