<svg width="85" height="24" viewBox="0 0 85 24" fill="none" xmlns="http://www.w3.org/2000/svg">
<path d="M9.59675 3.97278V10.7425H3.42846V3.97278H0.5V20.1328H3.42846V13.5829H9.59675V20.1328H12.5252V3.97278H9.59675Z" fill="#33475B"/>
<path d="M21.8974 14.9091C21.8974 15.5567 21.6421 16.1779 21.1878 16.6358C20.7334 17.0938 20.1172 17.351 19.4747 17.351C18.8321 17.351 18.2159 17.0938 17.7616 16.6358C17.3072 16.1779 17.052 15.5567 17.052 14.9091V7.98749H14.2742V14.9091C14.2742 16.298 14.8215 17.63 15.7959 18.612C16.7702 19.5941 18.0917 20.1459 19.4696 20.1459C20.8476 20.1459 22.1691 19.5941 23.1434 18.612C24.1177 17.63 24.6651 16.298 24.6651 14.9091V7.98749H21.8974V14.9091Z" fill="#33475B"/>
<path d="M42.4787 8.70047C42.4787 7.28173 43.4099 6.83195 44.4301 6.83195C45.2522 6.83195 46.3384 7.4625 47.0486 8.22755L48.868 6.0669C47.9597 4.82894 46.1174 3.97278 44.6094 3.97278C41.5963 3.97278 39.4168 5.75163 39.4168 8.70047C39.4168 14.1715 46.0514 12.4361 46.0514 15.4977C46.0514 16.4421 45.1417 17.2765 44.1001 17.2765C42.4572 17.2765 41.9249 16.4667 41.1702 15.6105L39.1514 17.7263C40.4427 19.3244 42.0354 20.1357 43.9437 20.1357C46.8061 20.1357 49.109 18.3352 49.109 15.5208C49.109 9.44672 42.4744 11.334 42.4744 8.70047" fill="#33475B"/>
<path d="M83.5229 17.5513C81.8815 17.5513 81.4152 16.8355 81.4152 15.7392V10.8872H83.9663V8.42859H81.4152V5.18472L78.5986 6.45884V16.3423C78.5986 18.8703 80.329 20.1444 82.7022 20.1444C83.0744 20.1512 83.4464 20.1212 83.8128 20.0547L84.5 17.5051C84.1901 17.5268 83.8343 17.5484 83.5229 17.5484" fill="#33475B"/>
<path d="M32.4706 8.06847C31.0947 8.06847 30.1348 8.47051 29.2064 9.38886V4.06967H26.4243V13.9285C26.4243 17.6193 29.0716 20.1473 32.0459 20.1473C35.346 20.1473 38.2487 17.5745 38.2487 14.1093C38.2487 10.6876 35.577 8.06991 32.4706 8.06991V8.06847ZM32.4534 17.3257C31.8291 17.3257 31.2188 17.1391 30.6997 16.7895C30.1806 16.4399 29.776 15.943 29.5371 15.3616C29.2982 14.7802 29.2357 14.1405 29.3575 13.5233C29.4793 12.9061 29.7799 12.3392 30.2214 11.8942C30.6628 11.4493 31.2253 11.1463 31.8376 11.0235C32.4499 10.9007 33.0846 10.9637 33.6614 11.2045C34.2382 11.4454 34.7312 11.8532 35.078 12.3764C35.4249 12.8996 35.61 13.5148 35.61 14.144C35.61 14.9879 35.2775 15.7971 34.6855 16.3938C34.0935 16.9905 33.2906 17.3257 32.4534 17.3257Z" fill="#33475B"/>
<path d="M62.6793 13.9618C62.6793 10.4909 59.7824 7.92386 56.4766 7.92386C53.5022 7.92386 50.855 10.4518 50.855 14.1426V24.0072H53.6371V18.6808C54.564 19.5977 55.5253 20.0012 56.8999 20.0012C60.0062 20.0012 62.6779 17.385 62.6779 13.9618H62.6793ZM60.045 13.9271C60.045 14.5564 59.8599 15.1715 59.513 15.6948C59.1661 16.218 58.6732 16.6258 58.0964 16.8666C57.5196 17.1074 56.8849 17.1704 56.2726 17.0477C55.6602 16.9249 55.0978 16.6219 54.6563 16.1769C54.2149 15.7319 53.9142 15.165 53.7924 14.5478C53.6706 13.9306 53.7332 13.2909 53.9721 12.7095C54.211 12.1282 54.6156 11.6312 55.1347 11.2816C55.6538 10.932 56.2641 10.7454 56.8884 10.7454C57.7256 10.7454 58.5285 11.0806 59.1204 11.6773C59.7124 12.274 60.045 13.0833 60.045 13.9271Z" fill="#33475B"/>
<path d="M71.6671 7.7879V4.97066C72.0365 4.7967 72.3492 4.52057 72.569 4.17442C72.7887 3.82826 72.9063 3.42631 72.9082 3.01538V2.9503C72.9082 2.37496 72.6815 1.82318 72.2779 1.41635C71.8742 1.00952 71.3268 0.780969 70.756 0.780969H70.6914C70.1206 0.780969 69.5732 1.00952 69.1696 1.41635C68.766 1.82318 68.5392 2.37496 68.5392 2.9503V3.01538C68.5411 3.42631 68.6588 3.82826 68.8785 4.17442C69.0982 4.52057 69.411 4.7967 69.7803 4.97066V7.7879C68.7187 7.9516 67.7189 8.39513 66.882 9.07359L59.2172 3.05587C59.2715 2.85743 59.3004 2.65283 59.3033 2.44701C59.3041 1.96355 59.1627 1.4907 58.8969 1.08826C58.6311 0.685821 58.2529 0.371877 57.81 0.186138C57.3672 0.000399539 56.8797 -0.0487899 56.4091 0.0447919C55.9385 0.138374 55.506 0.370522 55.1664 0.711874C54.8267 1.05323 54.5951 1.48845 54.5009 1.96248C54.4066 2.43652 54.454 2.92808 54.637 3.37499C54.8199 3.82189 55.1303 4.20407 55.5288 4.47317C55.9272 4.74227 56.3959 4.88621 56.8756 4.88678C57.295 4.88489 57.7066 4.7722 58.0694 4.55994L65.6179 10.4793C64.9397 11.5119 64.5858 12.7265 64.6024 13.9647C64.619 15.203 65.0054 16.4075 65.7112 17.4212L63.4155 19.7351C63.2298 19.6754 63.0364 19.6437 62.8416 19.6411C62.4478 19.6414 62.0629 19.7593 61.7357 19.98C61.4084 20.2007 61.1533 20.5142 61.0028 20.8809C60.8522 21.2477 60.8129 21.6512 60.8898 22.0404C60.9667 22.4297 61.1563 22.7872 61.4348 23.0679C61.7132 23.3485 62.0679 23.5397 62.4541 23.6172C62.8403 23.6947 63.2406 23.655 63.6045 23.5033C63.9683 23.3515 64.2793 23.0945 64.4983 22.7646C64.7172 22.4347 64.8342 22.0468 64.8345 21.6499C64.8321 21.4535 64.8006 21.2585 64.7413 21.0714L67.0126 18.7821C67.7532 19.3565 68.6144 19.7525 69.5303 19.9397C70.4462 20.1269 71.3925 20.1003 72.2966 19.862C73.2007 19.6236 74.0388 19.1799 74.7465 18.5647C75.4542 17.9496 76.0129 17.1793 76.3797 16.3129C76.7464 15.4466 76.9116 14.5071 76.8626 13.5664C76.8136 12.6257 76.5516 11.7089 76.0967 10.886C75.6418 10.0632 75.0062 9.35617 74.2384 8.81916C73.4706 8.28216 72.591 7.92939 71.6671 7.7879ZM70.7259 17.0524C70.1046 17.0518 69.4974 16.8656 68.9811 16.5173C68.4647 16.169 68.0624 15.6742 67.825 15.0955C67.5876 14.5168 67.5257 13.8802 67.6471 13.266C67.7686 12.6519 68.0679 12.0878 68.5073 11.6451C68.9468 11.2024 69.5065 10.9009 70.1159 10.7788C70.7253 10.6566 71.3569 10.7193 71.9309 10.9589C72.5049 11.1985 72.9956 11.6042 73.3409 12.1248C73.6863 12.6454 73.8707 13.2575 73.871 13.8837C73.871 14.7237 73.5399 15.5293 72.9507 16.1233C72.3614 16.7172 71.5621 17.0509 70.7287 17.0509" fill="#FF7A59"/>
</svg>
